<svg xmlns="http://www.w3.org/2000/svg" version="1.1" xmlns:xlink="http://www.w3.org/1999/xlink" xmlns:svgjs="http://svgjs.dev/svgjs" width="1000" height="1000" viewBox="0 0 1000 1000"><g transform="matrix(1,0,0,1,0,0)"><svg viewBox="0 0 280 280" data-background-color="#ffffff" preserveAspectRatio="xMidYMid meet" height="1000" width="1000" xmlns="http://www.w3.org/2000/svg" xmlns:xlink="http://www.w3.org/1999/xlink"><g id="tight-bounds" transform="matrix(1,0,0,1,0,0)"><svg viewBox="0 0 280 280" height="280" width="280"><g><svg viewBox="0 0 280 280" height="280" width="280"><g><svg viewBox="0 0 280 280" height="280" width="280"><g id="textblocktransform"><svg viewBox="0 0 280 280" height="280" width="280" id="textblock"><g><svg viewBox="0 0 280 280" height="280" width="280"><g transform="matrix(1,0,0,1,26.05105082855971,8.006734178511124)"><svg viewBox="0 0 227.89789834288058 263.98653164297775" height="263.98653164297775" width="227.89789834288058"><g><svg xmlns="http://www.w3.org/2000/svg" xmlns:xlink="http://www.w3.org/1999/xlink" version="1.1" x="0" y="0" viewBox="9.638 3.247 80.72399999999999 93.507" enable-background="new 0 0 100 100" xml:space="preserve" height="263.98653164297775" width="227.89789834288058" class="icon-kg-0" data-fill-palette-color="accent" id="kg-0"><g fill="#000000" data-fill-palette-color="accent"><g fill="#000000" data-fill-palette-color="accent"><polygon points="36.703,11.011 9.638,26.636 9.638,38.757 36.703,23.131 63.767,38.757 63.767,26.636   " fill="#000000" data-fill-palette-color="accent"></polygon></g><g fill="#000000" data-fill-palette-color="accent"><polygon points="63.298,89.092 36.233,73.467 36.233,61.348 63.298,76.973 90.362,61.348 90.362,73.467   " fill="#000000" data-fill-palette-color="accent"></polygon></g><g fill="#000000" data-fill-palette-color="accent"><polygon points="9.638,42.012 36.703,26.386 47.198,32.446 20.134,48.072 20.134,79.324 9.638,73.264   " fill="#000000" data-fill-palette-color="accent"></polygon></g><g fill="#000000" data-fill-palette-color="accent"><polygon points="77.083,18.872 50.018,3.247 39.522,9.307 66.586,24.932 66.586,56.184 77.083,50.124   " fill="#000000" data-fill-palette-color="accent"></polygon></g><g fill="#000000" data-fill-palette-color="accent"><polygon points="23.01,81.127 23.011,49.876 33.507,43.816 33.507,75.068 60.571,90.693 50.075,96.754   " fill="#000000" data-fill-palette-color="accent"></polygon></g><g fill="#000000" data-fill-palette-color="accent"><polygon points="90.362,58.092 90.362,26.84 79.866,20.78 79.866,52.031 52.802,67.658 63.298,73.719   " fill="#000000" data-fill-palette-color="accent"></polygon></g></g></svg></g></svg></g><g><path d="M143.315 6.202v0c0.001 0.344-0.079 0.654-0.239 0.932-0.16 0.278-0.368 0.513-0.623 0.704-0.248 0.183-0.525 0.33-0.832 0.441-0.307 0.103-0.617 0.155-0.932 0.156v0c-0.402 0.001-0.834-0.071-1.294-0.216-0.468-0.145-0.893-0.348-1.274-0.61-0.388-0.269-0.714-0.583-0.978-0.94-0.271-0.357-0.408-0.759-0.41-1.205v0c-0.002-0.716 0.303-1.255 0.917-1.615 0.606-0.36 1.23-0.541 1.873-0.542v0c0.395-0.001 0.812 0.063 1.251 0.193 0.439 0.13 0.853 0.319 1.241 0.567 0.381 0.255 0.692 0.561 0.934 0.918 0.242 0.357 0.364 0.763 0.366 1.217z" fill="#6b7280" data-fill-palette-color="primary"></path><path d="M140.516 276.343v0c0 0.051-0.015 0.099-0.044 0.142-0.022 0.044-0.055 0.08-0.099 0.11-0.037 0.029-0.08 0.051-0.132 0.066-0.044 0.022-0.091 0.033-0.142 0.032v0c-0.058 0-0.124-0.015-0.197-0.044-0.073-0.022-0.143-0.051-0.209-0.087-0.058-0.044-0.11-0.095-0.153-0.154-0.037-0.051-0.055-0.113-0.055-0.186v0c0-0.117 0.048-0.201 0.143-0.253 0.095-0.058 0.194-0.088 0.296-0.087v0c0.058 0 0.121 0.011 0.186 0.033 0.073 0.022 0.139 0.051 0.198 0.088 0.058 0.044 0.11 0.091 0.153 0.142 0.037 0.059 0.055 0.124 0.055 0.198z" fill="#6b7280" data-fill-palette-color="primary"></path><path d="M0 135.865c0-1.016 0.823-1.839 1.839-1.839 1.016 0 1.839 0.823 1.839 1.839 0 1.016-0.823 1.839-1.839 1.839-1.016 0-1.839-0.823-1.839-1.839z" fill="#6b7280" data-fill-palette-color="primary"></path><path d="M276.322 135.865c0-1.016 0.823-1.839 1.839-1.839 1.016 0 1.839 0.823 1.839 1.839 0 1.016-0.823 1.839-1.839 1.839-1.016 0-1.839-0.823-1.839-1.839z" fill="#6b7280" data-fill-palette-color="primary"></path></g></svg></g></svg></g></svg></g></svg></g><defs></defs></svg><rect width="280" height="280" fill="none" stroke="none" visibility="hidden"></rect></g></svg></g></svg>